<svg width="48" height="48" viewBox="0 0 48 48" fill="none" xmlns="http://www.w3.org/2000/svg">
<circle cx="24" cy="24" r="24" fill="#0063E2"/>
<path d="M20.975 26.2543C21.0402 26.3125 21.1193 26.3535 21.205 26.3736C21.2907 26.3937 21.3803 26.3923 21.4656 26.3694C21.5509 26.3466 21.6292 26.303 21.6933 26.2427C21.7575 26.1824 21.8055 26.1074 21.8329 26.0243L25.4712 12.0648C25.4932 11.9799 25.4925 11.8909 25.469 11.8067C25.4455 11.7225 25.4001 11.646 25.3373 11.5847C25.2744 11.5234 25.1963 11.4796 25.1107 11.4575C25.0252 11.4354 24.935 11.4358 24.8493 11.4587L11.0837 15.1489C10.998 15.1719 10.9196 15.2165 10.8565 15.2785C10.7933 15.3404 10.7476 15.4175 10.7237 15.502C10.6998 15.5865 10.6987 15.6755 10.7205 15.7603C10.7422 15.845 10.786 15.9225 10.8476 15.985L20.975 26.2543Z" fill="#00F9FF"/>
<path d="M27.0094 21.7418C26.9441 21.6836 26.8651 21.6426 26.7794 21.6225C26.6937 21.6024 26.6041 21.6038 26.5188 21.6267C26.4335 21.6495 26.3552 21.6931 26.291 21.7534C26.2269 21.8137 26.1789 21.8887 26.1515 21.9718L22.5132 35.9312C22.4911 36.0162 22.4919 36.1052 22.5154 36.1894C22.5389 36.2736 22.5843 36.3501 22.6471 36.4114C22.71 36.4726 22.788 36.5165 22.8736 36.5386C22.9592 36.5607 23.0493 36.5603 23.135 36.5374L36.9007 32.8472C36.9864 32.8242 37.0647 32.7795 37.1279 32.7176C37.191 32.6557 37.2368 32.5786 37.2607 32.4941C37.2845 32.4096 37.2856 32.3206 37.2639 32.2358C37.2422 32.1511 37.1983 32.0736 37.1367 32.0111L27.0094 21.7418Z" fill="#F9FAFF"/>
</svg>
